<svg width="100" height="100" xmlns="http://www.w3.org/2000/svg"><path d="m49.963847,4c-25.385373,0 -45.963847,20.653309 -45.963847,46.131592c0,25.477748 20.578474,46.131607 45.963847,46.131607c25.385667,0 45.963847,-20.653859 45.963847,-46.131607c0,-25.478283 -20.57818,-46.131592 -45.963847,-46.131592zm3.969055,71.142566l0,6.497754l-6.192165,0l0,-6.424545c-10.161209,-1.39664 -14.614007,-9.776024 -14.614007,-9.776024l6.331461,-5.309961c0,0 4.035412,7.055943 11.340807,7.055943c4.035089,0 7.096601,-2.167875 7.096601,-5.869316c0,-8.661451 -23.241274,-7.611146 -23.241274,-23.674866c0,-6.983324 5.496361,-12.014189 13.083116,-13.200819l0,-6.497104l6.192422,0l0,6.49351c5.287677,0.698621 11.549472,3.49193 11.549472,9.49998l0,4.608864l-8.210151,0l0,-2.234456c0,-2.304196 -2.925231,-3.840729 -6.195143,-3.840729c-4.17444,0 -7.235967,2.094747 -7.235967,5.027861c0,8.867988 23.241266,6.70363 23.241266,23.535656c0.00332,6.916053 -5.145274,12.921653 -13.14644,14.108257l0,-0.000004z" fill="#4fc08d"/><animateTransform attributeType="xml" attributeName="transform" type="rotate" from="360 0 0" to="0 0 0" dur="6s" additive="sum" repeatCount="indefinite" /></svg>